<svg width="211" height="40" viewBox="0 0 211 40" fill="none" xmlns="http://www.w3.org/2000/svg">
<path fill-rule="evenodd" clip-rule="evenodd" d="M82.7879 21.7249C85.2993 22.4285 87.5407 23.0565 87.7033 24.9071C87.2487 29.2108 80.8536 27.9379 78.3684 26.2406C77.3379 25.392 76.4589 25.6648 75.6709 26.4528C75.1254 27.2711 75.0951 28.6047 76.0952 29.423C80.2778 32.8781 91.4312 32.6963 91.6434 24.998C91.7612 20.5191 87.7444 19.4078 84.2909 18.4524C81.5282 17.6881 79.1261 17.0235 79.4898 14.8144C80.1262 11.6624 85.218 12.3291 87.4608 13.7536C89.2793 15.0872 91.4615 12.4504 89.4006 10.7834C85.218 7.57075 76.3377 8.63154 75.6406 14.5113C75.0887 19.5678 79.2119 20.723 82.7879 21.7249ZM55.91 29.9079C55.4251 30.9384 54.3037 31.1506 53.2126 30.9384C52.2427 30.3929 51.6365 29.3018 52.2427 28.0288L60.9412 11.0259C61.7595 9.41955 63.9417 9.35893 64.6994 11.0259L73.2463 28.0288C74.489 30.3929 70.8217 32.272 69.7306 29.9079L68.397 27.2408H57.2133L55.91 29.9079ZM59.0924 23.2401H66.2451L62.8203 15.754L59.0924 23.2401ZM106.828 24.9071C106.665 23.0565 104.424 22.4285 101.912 21.7249C98.3365 20.723 94.2132 19.5678 94.7651 14.5113C95.4622 8.63154 104.343 7.57075 108.525 10.7834C110.586 12.4504 108.404 15.0872 106.585 13.7536C104.343 12.3291 99.2508 11.6624 98.6143 14.8144C98.2506 17.0235 100.653 17.6881 103.415 18.4524C106.869 19.4078 110.886 20.5191 110.768 24.998C110.556 32.6963 99.4023 32.8781 95.2198 29.423C94.2196 28.6047 94.2499 27.2711 94.7955 26.4528C95.5835 25.6648 96.4624 25.392 97.4929 26.2406C99.9782 27.9379 106.373 29.2108 106.828 24.9071ZM116.102 30.9384H127.498C130.468 30.9384 130.256 26.968 127.498 26.968H118.254V22.4218H125.892C128.589 22.4218 128.589 18.4514 125.892 18.4514H118.254V13.9052H126.983C129.711 13.9052 129.771 9.96511 126.983 9.96511H116.102C115.041 9.96511 114.223 10.7531 114.223 11.8442V29.0593C114.223 30.1201 115.041 30.9384 116.102 30.9384ZM141.44 23.9978L136.924 17.6331V28.8471C136.924 30.1807 135.833 30.9384 134.742 30.9384C133.772 30.9384 132.923 30.1807 132.923 28.8471V11.7836C132.923 10.2076 134.257 9.69231 134.742 9.69231C135.621 9.69231 136.136 10.2076 136.651 10.7834L143.319 19.785L150.229 10.45C151.229 9.20738 153.684 9.69231 153.684 11.7836V28.8471C153.684 30.1807 152.836 30.9384 151.866 30.9384C150.775 30.9384 149.926 30.1807 149.926 28.8471V17.6331L144.895 23.9978C143.804 25.3314 142.44 25.3314 141.44 23.9978ZM168.232 13.6627C169.536 13.6627 170.354 14.7538 170.354 15.754C170.354 17.3603 169.536 18.1786 168.232 18.1786H161.837V13.6627H168.232ZM169.233 30.9384H159.716C158.625 30.9384 157.867 30.1201 157.867 29.0593V11.8442C157.867 10.7531 158.625 9.96511 159.716 9.96511H168.232C172.203 9.96511 174.355 12.6625 174.355 15.754C174.355 17.1179 173.961 18.4514 172.688 19.5728C175.082 20.5124 176.143 22.3612 176.143 24.604C176.143 28.0894 173.779 30.9384 169.233 30.9384ZM161.837 27.2408V21.8762H169.233C172.748 21.8762 172.748 27.2408 169.233 27.2408H161.837ZM179.719 29.0896V11.7836C179.719 10.7834 180.568 9.93479 181.629 9.93479C182.599 9.93479 183.417 10.7834 183.417 11.7836V26.968H191.661C194.631 26.968 194.692 30.9384 191.661 30.9384H181.629C180.568 30.9384 179.719 30.1807 179.719 29.0896ZM192.934 12.8747L199.541 22.7855V29.029C199.541 31.6658 203.542 31.7264 203.542 29.0593V22.7855L210.391 12.8747C211.967 10.8441 208.603 8.63155 206.997 10.8441L201.632 18.7545L196.328 10.8441C194.752 8.48001 191.479 10.935 192.934 12.8747Z" fill="#262626"/>
<path fill-rule="evenodd" clip-rule="evenodd" d="M0 5.81818C0 2.60489 2.60489 0 5.81818 0H34.1818C37.3951 0 40 2.60489 40 5.81818V34.1818C40 37.3951 37.3951 40 34.1818 40H5.81818C2.60489 40 0 37.3951 0 34.1818V5.81818Z" fill="#FA541C"/>
<path fill-rule="evenodd" clip-rule="evenodd" d="M22.9815 10.7323C21.7531 8.27443 18.247 8.27443 17.0185 10.7323L9.24513 26.2851C8.13694 28.5023 9.74863 31.1111 12.2266 31.1111H13.8736C16.5808 31.1022 18.3003 30.4509 18.3003 28.9345C18.3003 28.2742 17.9419 27.7254 17.5351 27.1023C17.001 26.2843 16.3835 25.3383 16.3835 23.8446C16.3835 21.213 18.7443 20.6065 20.2279 20.6065C22.7945 20.6065 23.8667 22.1443 23.8667 23.8446C23.8667 25.0982 23.2807 25.8777 22.7199 26.6239C22.2052 27.3087 21.7116 27.9653 21.7116 28.9345C21.7116 30.9313 23.8806 31.1066 24.9379 31.1111H27.7734C30.2514 31.1111 31.8631 28.5023 30.7549 26.2851L22.9815 10.7323Z" fill="white"/>
</svg>
